<?xml version="1.0" encoding="UTF-8"?><svg xmlns="http://www.w3.org/2000/svg" viewBox="0 0 300.47 300.47"><defs><style>.x{fill:#fff;}</style></defs><g id="a"/><g id="b"/><g id="c"/><g id="d"/><g id="e"/><g id="f"/><g id="g"/><g id="h"/><g id="i"/><g id="j"><g id="k"><path class="x" d="M133.79,190.71c4.55,2.39,10.31,4.24,17.23,4.24,1.42,0,2.81-.08,4.18-.2,5.77-.53,11.09-2.09,15.74-4.04,2.16-.91,4.18-1.9,6.03-2.9,.82-.45,1.6-.9,2.35-1.35,.75-.45,1.47-.9,2.15-1.33,3.21-2.08,7.51-1.62,10.22,1.1l.23,.23,3.47,3.49c.28,.28,.52,.58,.75,.88,.48,.64,.87,1.35,1.14,2.09,.41,1.14,.57,2.36,.45,3.6-.01,.11-.04,.22-.05,.34-.02,.12-.03,.24-.06,.36-.1,.52-.25,1.02-.44,1.5-.61,1.52-1.65,2.84-3.05,3.78h-.02c-.28,.2-.58,.39-.87,.58-1.13,.74-2.34,1.48-3.61,2.23-.22,.13-.44,.25-.66,.38-.31,.18-.62,.36-.93,.54-.7,.39-1.41,.78-2.15,1.16-1.24,.65-2.55,1.29-3.9,1.91-2.43,1.12-5.01,2.18-7.74,3.12-6.91,2.39-14.73,4.03-23.23,4.03-20.42,0-34.34-9.91-42.25-17.89-.85-.86-1.64-1.7-2.35-2.51-.18-.2-.36-.41-.53-.61-.25-.29-.5-.58-.73-.86-.35-.41-.34-.85-.3-1.08,.04-.27,.19-.65,.64-.92l3.4-2.12,5.17-3.23,1.24-.77,5.45-3.4c.42-.26,.88-.39,1.35-.39,.69,0,1.39,.28,1.92,.82,.88,.89,1.99,1.91,3.3,2.97,1.77,1.43,3.93,2.92,6.47,4.25Zm75.3,39v69.84h-6.89v-53.19c0-12.14-2.34-29.17-4.91-35.45-.04-.09-.07-.18-.11-.26,.56-.36,1.12-.71,1.65-1.07,.13-.09,.25-.19,.38-.28,1.14-.8,2.15-1.73,3.04-2.77l.02-.02c1.88,2.6,3.56,5.89,4.79,9.75,1.25,3.94,2.03,8.46,2.03,13.44Zm-55.75,43.84c-1.59,1.24-3.88,.95-5.12-.63-2.29-2.93-5.47-7.43-8.29-11.49,6.23,1.99,12.13,4.55,14.04,7,.6,.77,.86,1.72,.74,2.69-.06,.51-.23,.99-.49,1.41-.16,.27-.37,.52-.6,.74-.1,.09-.18,.19-.29,.27Zm37.07-56.76c1.79,5.21,3.29,20.34,3.29,29.58v53.19h-10.14v-.41c.39-12.71,1.37-46.49,1.37-52.98,0-6.14-1.33-19.33-2.75-23.14-.56-1.51-1.14-2.8-1.66-3.84,3.05-1.2,5.91-2.5,8.56-3.86,.22-.11,.45-.22,.67-.34,.22,.58,.45,1.18,.66,1.81Zm-35.25,65.33c1.2-.42,2.35-1.04,3.41-1.86,.4-.31,.76-.65,1.11-.99l15.42,18.82,.9,1.1,.16,.19h-10.05l-.09-.15-10.85-17.11Zm-56.04-81.51c.3,.35,.62,.72,.94,1.09,.89,1,1.87,2.05,2.95,3.13,9.06,9.06,24.87,20.13,48.01,20.13,3.83,0,7.54-.29,11.1-.82-6.81,2.61-14.69,4.33-23.86,4.33-18.68,0-31.92-8.29-40.09-15.81-1.18-1.08-2.25-2.15-3.21-3.18-.95-1.01-1.81-1.98-2.56-2.88-.23-.27-.29-.55-.31-.77,0-.12,0-.23,0-.3,.04-.27,.19-.65,.64-.92l.13-.08,6.26-3.9Zm118.48,99.13v-70.03c0-10.09-2.87-19.81-7.6-26.98-.87-2.9-2.16-5.9-3.81-8.51-.34-3.84-1.99-7.47-4.77-10.26l-3.71-3.73c-5.53-5.56-14.31-6.5-20.88-2.24-5.95,3.86-15.25,8.46-25.82,8.46-10.01,0-16.92-4.86-20.95-8.94-3.71-3.75-9.39-4.43-13.82-1.67l-15.23,9.51c-2.43,1.49-4.09,3.96-4.55,6.78,0,.04,0,.08-.01,.12l-8.2,5.12c-2.43,1.49-4.09,3.97-4.55,6.78-.46,2.82,.33,5.7,2.16,7.9,.95,1.14,2.05,2.38,3.29,3.67v84.02"/><path class="x" d="M188.56,71.45l4.11-5.24c1.45-1.85,1.12-4.52-.72-5.97-1.85-1.45-4.52-1.12-5.97,.72l-4.31,5.5c-2.59-1.67-5.25-3.18-7.97-4.47-25.24-11.98-46.66-8.18-57.31,10.15-4.16,7.17-4.88,15.74-2.07,24.8,.47,1.53,1.07,3.05,1.73,4.56-6.09,7.52-9.75,17.09-9.75,27.51,0,24.14,19.64,43.78,43.78,43.78,19.51,0,36.08-12.84,41.72-30.51,11.14-1.37,19.81-6.25,23.7-14.45,6.77-14.27-6.68-40.12-26.93-56.4Zm-5.96,71.21c-5.34,12.7-17.91,21.64-32.53,21.64-19.45,0-35.28-15.83-35.28-35.28,0-7.13,2.13-13.77,5.78-19.32,.82-1.25,1.73-2.45,2.7-3.59,.95-1.11,1.97-2.17,3.05-3.16,6.27-5.72,14.61-9.21,23.74-9.21,19.45,0,35.28,15.83,35.28,35.28,0,1.74-.13,3.46-.38,5.13-.21,1.45-.52,2.86-.9,4.25-.4,1.46-.89,2.88-1.47,4.26Z"/><path class="x" d="M170.73,145.34c-.12-.02-.17-.04-.38-.24-.23-.23-.51-.59-.79-1.04-.37-.57-.75-1.26-1.16-2-.29-.52-.59-1.06-.91-1.61-.02-.04-.04-.07-.06-.1-.75-1.27-1.8-2.94-3.34-4.51-.32-.33-.74-.73-1.25-1.14-1.8-1.48-4.66-3.2-7.52-3.2-.31,0-.61,.02-.9,.04-1.9,.17-3.39,.86-4.35,1.98-1.1-1.29-2.91-2.03-5.25-2.03-.02,0-.05,0-.07,0-3.64,.04-7.27,2.85-8.7,4.34-1.54,1.58-2.59,3.24-3.34,4.51-.35,.59-.67,1.17-.98,1.72-.41,.73-.79,1.43-1.17,2.01-.28,.44-.56,.81-.78,1.03-.22,.21-.26,.23-.38,.25-.46,.07-2.03,.39-2.75,1.67-.37,.65-.42,1.4-.14,2.11,.19,.46,.45,.82,.78,1.07,.28,.24,.74,.58,1.36,.73,.56,.18,1.18,.26,1.8,.26,.76,0,1.54-.13,2.25-.38,1.21-.41,2.16-1.04,2.93-1.61,.97-.72,1.8-1.45,2.53-2.09,.41-.36,.8-.7,1.2-1.03,1.06-.89,2.14-1.54,2.95-2,.65-.37,1.59-.63,2.58-.9,1.72-.47,3.85-1.06,5.15-2.6,1.3,1.55,3.43,2.13,5.15,2.6,.99,.27,1.93,.53,2.58,.9,.81,.46,1.89,1.11,2.96,2.01,.39,.32,.78,.67,1.19,1.02,.73,.64,1.56,1.37,2.53,2.09,.77,.56,1.71,1.19,2.91,1.6,.73,.26,1.52,.39,2.28,.39,.61,0,1.2-.08,1.73-.25,.68-.17,1.14-.51,1.39-.72,.36-.28,.62-.64,.81-1.1,.28-.71,.23-1.46-.14-2.1-.72-1.29-2.29-1.62-2.74-1.68Z"/></g></g><g id="l"/><g id="m"/><g id="n"/><g id="o"/><g id="p"/><g id="q"/><g id="r"/><g id="s"/><g id="t"/><g id="u"/><g id="v"/><g id="w"/></svg>