<?xml version="1.0" encoding="UTF-8"?><svg xmlns="http://www.w3.org/2000/svg" viewBox="0 0 300.47 300.47"><defs><style>.w{fill:#fff;}</style></defs><g id="a"/><g id="b"/><g id="c"/><g id="d"/><g id="e"/><g id="f"/><g id="g"/><g id="h"><g><g/><path class="w" d="M274.58,139.47c0-17.23-8.23-33.34-23.18-45.36-14.54-11.69-33.78-18.13-54.19-18.13-14.81,0-29.01,3.4-41.25,9.73-12.23-6.33-26.43-9.73-41.25-9.73-20.41,0-39.65,6.44-54.19,18.13-14.95,12.02-23.18,28.13-23.18,45.36,0,15.27,6.55,29.8,18.54,41.28l-6.34,43.75,37.34-25.75c8.85,2.8,18.2,4.22,27.83,4.22,14.56,0,29.03-3.26,41.25-9.14,12.21,5.88,26.68,9.14,41.25,9.14,9.63,0,18.98-1.42,27.83-4.22l37.34,25.75-6.34-43.75c11.98-11.48,18.54-26.01,18.54-41.28Zm-186.5,46.01l-3.13-1.12-18.32,12.63,3.09-21.29-2.68-2.32c-10.78-9.32-16.72-21.37-16.72-33.91,0-27.87,28.9-50.54,64.42-50.54,10.16,0,19.77,1.86,28.33,5.16l-.03,.02c-14.95,12.02-23.18,28.13-23.18,45.36,0,18.63,7.79,34.47,22.58,46.01-8.7,3.01-18.22,4.53-27.7,4.53s-18.27-1.53-26.65-4.54Zm83.44-20.81h-31.09c-.59-.87-1.16-1.76-1.69-2.67h34.47c-.53,.91-1.09,1.8-1.69,2.67Zm-13.22,12.95c-.76,.52-1.54,1.02-2.33,1.51-.79-.49-1.57-.99-2.33-1.51h4.66Zm19.88-28.57h-44.41c-.18-.88-.34-1.76-.47-2.67h45.35c-.13,.9-.29,1.79-.47,2.67Zm-44.91-15.62c.14-.9,.3-1.78,.5-2.67h44.43c.19,.88,.36,1.77,.5,2.67h-45.42Zm5.76-15.62c.55-.9,1.13-1.79,1.74-2.67h30.42c.61,.87,1.2,1.76,1.74,2.67h-33.91Zm14.73-15.62c.72-.52,1.47-1.03,2.22-1.52,.75,.5,1.5,1,2.22,1.52h-4.44Zm91.56,94.79l-18.32-12.63-3.13,1.12c-8.38,3.01-17.35,4.53-26.65,4.53s-19-1.52-27.7-4.53c14.79-11.55,22.58-27.38,22.58-46.01,0-17.23-8.23-33.34-23.18-45.36l-.03-.02c8.55-3.3,18.17-5.16,28.33-5.16,35.52,0,64.42,22.67,64.42,50.54,0,12.55-5.94,24.59-16.72,33.91l-2.68,2.32,3.09,21.29Z"/></g></g><g id="i"/><g id="j"/><g id="k"/><g id="l"/><g id="m"/><g id="n"/><g id="o"/><g id="p"/><g id="q"/><g id="r"/><g id="s"/><g id="t"/><g id="u"/><g id="v"/></svg>