<?xml version="1.0" encoding="UTF-8"?><svg xmlns="http://www.w3.org/2000/svg" viewBox="0 0 300.47 300.47"><defs><style>.w{fill:#fff;}</style></defs><g id="a"/><g id="b"/><g id="c"/><g id="d"/><g id="e"/><g id="f"/><g id="g"/><g id="h"/><g id="i"/><g id="j"/><g id="k"/><g id="l"/><g id="m"/><g id="n"/><g id="o"/><g id="p"/><g id="q"/><g id="r"><g><polygon class="w" points="120.04 60.07 59.38 120.73 59.38 141.33 140.64 60.07 120.04 60.07"/><polygon class="w" points="146.68 66.06 68.75 143.98 89.35 143.98 146.68 86.66 146.68 66.06"/><polygon class="w" points="146.68 98.68 101.38 143.98 121.98 143.98 121.98 143.98 146.68 119.28 146.68 98.68"/><polygon class="w" points="87.42 60.07 59.38 88.11 59.38 108.71 108.02 60.07 87.42 60.07"/><polygon class="w" points="59.38 60.07 59.38 76.08 75.39 60.07 59.38 60.07"/><polygon class="w" points="146.68 131.31 134 143.98 146.68 143.98 146.68 131.31"/><path class="w" d="M155.18,94.98h25.02l-5.47-5.47c-1.66-1.66-1.66-4.35,0-6.01,1.66-1.66,4.35-1.66,6.01,0l10.58,10.58c2.84,2.84,2.84,7.47,0,10.31l-10.58,10.58c-.83,.83-1.92,1.25-3.01,1.25s-2.18-.42-3.01-1.25c-1.66-1.66-1.66-4.35,0-6.01l5.47-5.47h-25.02v49h-42.5v25.66l5.47-5.47c1.66-1.66,4.35-1.66,6.01,0,1.66,1.66,1.66,4.35,0,6.01l-10.58,10.58c-1.38,1.38-3.21,2.14-5.16,2.14s-3.78-.76-5.16-2.14l-10.58-10.58c-1.66-1.66-1.66-4.35,0-6.01,1.66-1.66,4.35-1.66,6.01,0l5.47,5.47v-25.66H60.24c-.29,0-.58-.03-.86-.09v87.38H242.48V60.07h-87.3v34.92Z"/><path class="w" d="M272.68,50.42c0-2.35-1.9-4.25-4.25-4.25h-13.75v-13.75c0-2.35-1.9-4.25-4.25-4.25s-4.25,1.9-4.25,4.25v22.25h22.25c2.35,0,4.25-1.9,4.25-4.25Z"/><path class="w" d="M51.43,28.17c-2.35,0-4.25,1.9-4.25,4.25v13.75h-13.75c-2.35,0-4.25,1.9-4.25,4.25s1.9,4.25,4.25,4.25h22.25v-22.25c0-2.35-1.9-4.25-4.25-4.25Z"/><path class="w" d="M29.18,249.42c0,2.35,1.9,4.25,4.25,4.25h13.75v13.75c0,2.35,1.9,4.25,4.25,4.25s4.25-1.9,4.25-4.25v-22.25h-22.25c-2.35,0-4.25,1.9-4.25,4.25Z"/><path class="w" d="M268.43,245.17h-22.25v22.25c0,2.35,1.9,4.25,4.25,4.25s4.25-1.9,4.25-4.25v-13.75h13.75c2.35,0,4.25-1.9,4.25-4.25s-1.9-4.25-4.25-4.25Z"/></g></g><g id="s"/><g id="t"/><g id="u"/><g id="v"/></svg>