<?xml version="1.0" encoding="UTF-8"?><svg xmlns="http://www.w3.org/2000/svg" viewBox="0 0 300.47 300.47"><defs><style>.w{fill:#fff;}</style></defs><g id="a"/><g id="b"/><g id="c"/><g id="d"/><g id="e"><g><path class="w" d="M177.13,175.57c-1.38-2.57-3.81-4.13-6.43-4.13h-11.94c0-.14,.02-.28,.02-.42,0-6.64-5.38-12.02-12.02-12.02s-12.02,5.38-12.02,12.02c0,.14,.02,.28,.02,.42h-4.3c-2.61,0-5.04,1.56-6.43,4.13l-31.07,57.66c-1.42,2.63,.21,6.04,2.89,6.04h109.46c2.67,0,4.31-3.41,2.89-6.04l-31.07-57.66Zm-13.89,28.92c-3.04,0-5.5-2.46-5.5-5.5s2.46-5.5,5.5-5.5,5.5,2.46,5.5,5.5-2.46,5.5-5.5,5.5Zm15.12,20c-4.49,0-8.12-3.64-8.12-8.12s3.64-8.12,8.12-8.12,8.12,3.64,8.12,8.12-3.64,8.12-8.12,8.12Z"/><path class="w" d="M230.6,227.44l-37.66-69.89c-9.39-17.42-14.35-37.5-14.35-58.06V57.67h7.95c2.35,0,4.25-1.9,4.25-4.25s-1.9-4.25-4.25-4.25H114.62c-2.35,0-4.25,1.9-4.25,4.25s1.9,4.25,4.25,4.25h7.95v41.82c0,20.56-4.96,40.64-14.35,58.06l-37.66,69.89c-4.45,8.26-4.24,18.39,.56,26.42,4.08,6.83,10.62,10.74,17.96,10.74h122.97c7.34,0,13.89-3.92,17.96-10.74,4.8-8.04,5.01-18.16,.56-26.42Zm-7.86,22.06c-2.5,4.19-6.39,6.6-10.66,6.6H89.09c-4.27,0-8.16-2.4-10.66-6.6-3.22-5.4-3.37-12.47-.38-18.03l37.66-69.89c10.05-18.65,15.36-40.12,15.36-62.09V57.67h39.01v41.82c0,21.96,5.31,43.43,15.36,62.09l37.66,69.89c2.99,5.56,2.84,12.63-.38,18.03Z"/><circle class="w" cx="159.61" cy="147.11" r="6.62"/></g></g><g id="f"/><g id="g"/><g id="h"/><g id="i"/><g id="j"/><g id="k"/><g id="l"/><g id="m"/><g id="n"/><g id="o"/><g id="p"/><g id="q"/><g id="r"/><g id="s"/><g id="t"/><g id="u"/><g id="v"/></svg>