<?xml version="1.0" encoding="UTF-8"?><svg xmlns="http://www.w3.org/2000/svg" viewBox="0 0 300.47 300.47"><defs><style>.x{fill:#fff;}</style></defs><g id="a"/><g id="b"/><g id="c"/><g id="d"/><g id="e"/><g id="f"/><g id="g"/><g id="h"/><g id="i"><path class="x" d="M201.5,148.04c.43-7.28-2.33-11.5-6.02-11.71-3.69-.22-6.92,3.65-7.35,10.93-.43,7.28,2.3,11.96,5.99,12.18s6.95-4.11,7.37-11.4Zm-10.72-.4c.26-4.48,2.22-8.01,4.38-7.89s3.69,3.86,3.43,8.34-2.22,8.01-4.38,7.89-3.69-3.86-3.43-8.34Z"/></g><g id="j"/><g id="k"/><g id="l"/><g id="m"><g id="n"/><g><polygon class="x" points="127.41 254.27 127.41 212.45 111.28 231.91 127.41 254.27"/><path class="x" d="M173.06,198.54v13.52h16.05l-15.82-15.25c-.06,.58-.14,1.16-.23,1.73Z"/><polygon class="x" points="127.41 212.06 127.41 196.8 111.58 212.06 127.41 212.06"/><path class="x" d="M183.12,224.31l-10.06-12.13v42.38l7.55-10.47c-2.46-2.23-4.01-5.44-4.01-9.01,0-4.67,2.65-8.73,6.52-10.77Z"/><path class="x" d="M135.92,190.71v32.08c14.13-1.23,26.27-11.99,28.64-25.01v-11.32h-28.64v4.25Z"/><path class="x" d="M156.24,85.66v-25.03c0-3.31-2.69-6-6-6s-6,2.69-6,6v25.03c-21.31,2.94-37.78,21.26-37.78,43.36,0,24.14,19.64,43.78,43.78,43.78s43.78-19.64,43.78-43.78c0-22.11-16.47-40.43-37.78-43.36Zm36.27,46.55-2.56,11.72-.67,3.3l9.21,2.54c3.14,1.01,6.67-.52,7.77-3.63s-.61-6.67-3.82-7.7l-9.47-2.63"/><path class="x" d="M187.84,230c-2.41,.44-4.25,2.54-4.25,5.08,0,1.23,.45,2.35,1.17,3.24,.95,1.17,2.38,1.93,4,1.93,2.85,0,5.17-2.32,5.17-5.17s-2.32-5.17-5.17-5.17c-.32,0-.62,.04-.92,.09Z"/><path class="x" d="M.24,280.24m107.12,6.61c-1.19-1.52-.92-12.23,.6-13.42,1.52-1.19,3.72-.92,4.91,.6l14.54,17.7v8.5h-9.58l-10.48-13.39Zm103.95,13.39v-90l11.39-8.55-5.1-6.8-6.56,4.92c-.27-1.49-.74-2.9-1.39-4.22l5.19-4.65-5.68-6.33-5.1,4.57c-.82-.55-1.7-1.03-2.62-1.42l3.62-6.81-7.51-3.99-5.04,9.49h-17.7l4.41,4.25,4.41,4.25,16.74,16.13c1.62,1.57,2.13,3.93,1.29,6.02-.84,2.09-2.85,3.45-5.11,3.45h-5.49l2.94,3.55c4.09,1.96,6.94,6.14,6.94,10.97,0,6.7-5.43,12.14-12.12,12.17l-15.74,21.85h0v31.14h-8.5v-83.38c-6.91,8.17-17.21,13.7-28.64,14.46v68.92h-8.5v-31.43l-23.03-31.97c-2.25-3.13-2.11-7.38,.35-10.35l4.91-5.92h-5.49c-2.26,0-4.26-1.35-5.11-3.45-.84-2.09-.34-4.46,1.29-6.02l16.74-16.13,4.41-4.25,4.41-4.25h-17.93l-5.04-9.49-7.51,3.99,3.62,6.81c-.92,.39-1.8,.87-2.62,1.42l-5.1-4.57-5.68,6.33,5.19,4.65c-.64,1.32-1.12,2.73-1.39,4.22l-6.56-4.92-5.1,6.8,11.39,8.55v90m-80.42-20"/></g></g><g id="o"/><g id="p"/><g id="q"/><g id="r"/><g id="s"/><g id="t"/><g id="u"/><g id="v"/><g id="w"/></svg>