<?xml version="1.0" encoding="UTF-8"?><svg xmlns="http://www.w3.org/2000/svg" viewBox="0 0 300.47 300.47"><defs><style>.w{fill:#fff;}</style></defs><g id="a"/><g id="b"/><g id="c"/><g id="d"/><g id="e"/><g id="f"/><g id="g"/><g id="h"/><g id="i"/><g id="j"/><g id="k"/><g id="l"/><g id="m"/><g id="n"/><g id="o"/><g id="p"/><g id="q"/><g id="r"/><g id="s"><g><path class="w" d="M111.66,73.24h-26.46v-26.46c0-2.74-2.22-4.96-4.96-4.96s-4.96,2.22-4.96,4.96v26.46h-26.46c-2.74,0-4.96,2.22-4.96,4.96s2.22,4.96,4.96,4.96h26.46v26.46c0,2.74,2.22,4.96,4.96,4.96s4.96-2.22,4.96-4.96v-26.46h26.46c2.74,0,4.96-2.22,4.96-4.96s-2.22-4.96-4.96-4.96Z"/><path class="w" d="M251.67,73.24h-62.85c-2.74,0-4.96,2.22-4.96,4.96s2.22,4.96,4.96,4.96h62.85c2.74,0,4.96-2.22,4.96-4.96s-2.22-4.96-4.96-4.96Z"/><path class="w" d="M245.97,193.32c-1.94-1.94-5.08-1.94-7.02,0l-18.71,18.71-18.71-18.71c-1.94-1.94-5.08-1.94-7.02,0-1.94,1.94-1.94,5.08,0,7.02l18.71,18.71-18.71,18.71c-1.94,1.94-1.94,5.08,0,7.02,.97,.97,2.24,1.45,3.51,1.45s2.54-.48,3.51-1.45l18.71-18.71,18.71,18.71c.97,.97,2.24,1.45,3.51,1.45s2.54-.48,3.51-1.45c1.94-1.94,1.94-5.08,0-7.02l-18.71-18.71,18.71-18.71c1.94-1.94,1.94-5.08,0-7.02Z"/><path class="w" d="M111.66,213.52H48.81c-2.74,0-4.96,2.22-4.96,4.96s2.22,4.96,4.96,4.96h62.85c2.74,0,4.96-2.22,4.96-4.96s-2.22-4.96-4.96-4.96Z"/><path class="w" d="M86.73,188.71c0-3.49-2.84-6.32-6.32-6.32s-6.32,2.83-6.32,6.32,2.84,6.32,6.32,6.32,6.32-2.83,6.32-6.32Z"/><path class="w" d="M80.41,241.77c-3.48,0-6.32,2.83-6.32,6.32s2.84,6.32,6.32,6.32,6.32-2.83,6.32-6.32-2.84-6.32-6.32-6.32Z"/></g></g><g id="t"/><g id="u"/><g id="v"/></svg>