<?xml version="1.0" encoding="UTF-8"?><svg xmlns="http://www.w3.org/2000/svg" viewBox="0 0 300.47 300.47"><defs><style>.w{fill:#fff;}</style></defs><g id="a"/><g id="b"/><g id="c"/><g id="d"/><g id="e"/><g id="f"/><g id="g"/><g id="h"/><g id="i"><g><path class="w" d="M119.87,190.13c-1.66-1.49-3.61-2.65-5.81-3.44-2.17-.78-4.49-1.17-6.9-1.17-2.06,0-4.05,.32-5.9,.94-1.85,.62-3.5,1.5-4.9,2.61h0c-.85,.68-1.61,1.42-2.28,2.24-.19-.12-.39-.24-.58-.35-2.52-1.45-5.55-2.19-9-2.19-1.87,0-3.75,.33-5.6,.99-1.84,.66-3.52,1.62-5,2.88-1.48,1.26-2.68,2.84-3.56,4.67-.88,1.83-1.32,3.92-1.32,6.22v13.14c0,2.59,1.34,4.05,2.46,4.82,1.32,.9,2.96,1.38,4.74,1.38h41.79c1.78,0,3.42-.48,4.75-1.38,.54-.37,1.13-.91,1.6-1.65,.5-.8,.86-1.83,.86-3.17v-13.97c0-2.62-.48-5.02-1.42-7.11-.04-.1-.1-.18-.14-.28-.94-2-2.21-3.75-3.78-5.16Zm-30.42,20.68h-7.38v-6.65c0-.73,.1-2.04,.8-2.59,.42-.33,1.16-.77,2.72-.77,1.21,0,2.13,.28,2.88,.89,.24,.19,.97,.78,.97,2.64v6.47Zm22.73,0h-9.95v-8.12c0-.95,.14-1.77,.42-2.41,.27-.62,.62-1.12,1.07-1.54,.42-.39,.89-.67,1.44-.85,.62-.21,1.28-.32,2.01-.32,1.56,0,2.65,.39,3.52,1.28h0c1.01,1.02,1.49,2.35,1.49,4.08v7.88Z"/><path class="w" d="M226.12,186.08c-.47,.66-1.02,1.41-1.65,2.24-.56,.73-1.23,1.5-1.98,2.27-.62,.63-1.4,1.2-2.32,1.68-1.25,.65-2.27,.82-3.1,.5-.92-.35-1.66-1.02-2.25-2.05-.64-1.11-1.13-2.51-1.45-4.17-.34-1.75-.51-3.6-.51-5.52s.17-3.97,.49-6.07c.3-1.96,.79-3.85,1.44-5.62,.6-1.65,1.36-3.09,2.32-4.43,.89-1.24,1.97-2.17,3.3-2.87,1.11-.58,1.71-.66,2.03-.62,.6,.07,1.11,.21,1.49,.41,.49,.27,.91,.53,1.26,.79,.88,.64,1.91,.68,3,.12,1.35-.71,2.54-2.18,3.33-4.14,.64-1.58,.98-3.28,.98-4.9s-.43-2.91-1.28-3.99c-.64-.81-1.47-1.4-2.56-1.82-1.02-.39-2.24-.53-3.62-.4-1.4,.13-2.95,.64-4.63,1.51-2.82,1.47-5.35,3.62-7.53,6.39-2.15,2.73-3.97,5.86-5.41,9.29-1.41,3.36-2.48,6.95-3.18,10.68-.69,3.63-1.04,7.23-1.04,10.68s.35,6.69,1.04,9.6c.7,2.99,1.76,5.47,3.15,7.36,1.42,1.95,3.22,3.19,5.34,3.7,2.16,.51,4.65,.04,7.41-1.4,1.62-.84,3.16-1.89,4.6-3.1,1.44-1.22,2.73-2.52,3.85-3.88,1.24-1.5,2.21-2.98,2.98-4.51,1.31-2.62,1.58-4.68,1.58-5.95,0-2.28-.59-3.46-1.08-4.05-1.37-1.64-3.76-.87-5.96,2.24Z"/><path class="w" d="M143.4,138.89l-4.81-15.09-8.63-27.08c-.49-1.64-1.2-3.1-2.13-4.33-.88-1.16-2.45-2.61-5-2.92-2.55-.31-4.12,.77-5,1.72-.93,1.01-1.64,2.3-2.1,3.73,0,0-9.09,26.39-12.52,36.39-.78,2.26-1.26,3.68-1.29,3.78-1.64,5.2-.42,8.56,3.36,9.68,3.87,1.14,6.87-1.39,7.63-3.65l1.93-5.71,10.25,1.21,5.29,.63,1.93,6.16c.4,1.28,1.01,2.42,1.83,3.38,.24,.28,.55,.59,.92,.88,.76,.6,1.78,1.14,3.15,1.3,1.47,.18,2.84-.2,3.96-1.08,1.35-1.06,2.1-2.76,2.1-4.78,0-.89-.17-1.88-.51-3.02-.17-.54-.28-.94-.35-1.21Zm-24.87-16.53l3.94-11.64,3.72,12.64-7.66-1.01Z"/><path class="w" d="M250.5,117.32c-1.27-1.01-17.76-5.68-33.27-9.93v-43.03c0-7.39-5.53-13.65-12.87-14.55l-64.46-7.9c-2.95-.36-5.91,.18-8.5,1.52-1.07,.55-46.03,21.23-49.17,24.01-3.14,2.78-4.94,6.78-4.94,10.98v52.34l-6.26,.06c-2.93,.03-5.82,.93-7.42,3-1.91,2.47-11.43,19.17-14.26,23.56-1.69,2.62-3.16,5.49-3.16,8.87v71.65c0,3.99,1.72,7.92,4.71,10.79,2.95,2.82,6.95,4.42,10.99,4.42h.15l72.95-.65c8.12-.08,14.48-6.3,14.48-14.16v-7.71c17.33,4.88,38.63,10.59,39.18,10.74,1.53,.43,3.21,.35,4.93-.24,.45-.16,.91-.35,1.37-.58l49.48-24.91c5.63-2.84,9.88-10.49,9.88-17.81V126.87c0-4.15-1.38-7.63-3.8-9.55Zm-111.39,111.08v10.67c0,2.35-1.82,4.14-4.23,4.16l-72.93,.65c-2.87,.03-5.41-2.41-5.41-5.21v-71.65c0-2.35,1.82-4.14,4.23-4.16l22.52-.2c1.96,1.44,4.3,2.42,6.87,2.74l33.5,4.11,15.45,1.89v57Zm21.94-115.9v46.26c0,2.8-2.45,4.96-5.22,4.62l-7.27-.89-24.91-3.05-32.28-3.96c-2.33-.29-4.09-2.27-4.09-4.62V79.2c0-2.8,2.45-4.96,5.22-4.62l30.95,3.79,33.5,4.11c2.33,.29,4.09,2.27,4.09,4.62v25.39Zm83.57,87.71c0,2.33-1.35,4.76-3.14,5.66l-49.48,24.91c-2.13,1.07-4.01-.42-4.01-3.19v-67.55c11.55-5.52,22.99-11.12,24.3-12.28,2.86-2.53,4.59-6.07,4.88-9.85l23.44-11.8c2.13-1.07,4.01,.42,4.01,3.19v70.9Z"/></g></g><g id="j"/><g id="k"/><g id="l"/><g id="m"/><g id="n"/><g id="o"/><g id="p"/><g id="q"/><g id="r"/><g id="s"/><g id="t"/><g id="u"/><g id="v"/></svg>