<?xml version="1.0" encoding="UTF-8"?><svg xmlns="http://www.w3.org/2000/svg" viewBox="0 0 300 300"><defs><style>.e{fill:#fff;}.f{fill:#951b81;}</style></defs><g id="a"/><g id="b"><g id="c"><g><g id="d"><rect class="f" width="300" height="300" rx="20" ry="20"/></g><g><polygon class="e" points="119.81 59.83 59.14 120.5 59.14 141.1 140.41 59.83 119.81 59.83"/><polygon class="e" points="146.44 65.82 68.52 143.75 89.11 143.75 146.44 86.42 146.44 65.82"/><polygon class="e" points="146.44 98.45 101.14 143.75 121.74 143.75 121.74 143.74 146.44 119.05 146.44 98.45"/><polygon class="e" points="87.18 59.83 59.14 87.87 59.14 108.47 107.78 59.83 87.18 59.83"/><polygon class="e" points="59.14 59.83 59.14 75.85 75.16 59.83 59.14 59.83"/><polygon class="e" points="146.44 131.07 133.77 143.75 146.44 143.75 146.44 131.07"/><path class="e" d="M154.95,94.75h25.02l-5.47-5.47c-1.66-1.66-1.66-4.35,0-6.01,1.66-1.66,4.35-1.66,6.01,0l10.58,10.58c2.84,2.84,2.84,7.47,0,10.31l-10.58,10.58c-.83,.83-1.92,1.25-3.01,1.25s-2.18-.42-3.01-1.25c-1.66-1.66-1.66-4.35,0-6.01l5.47-5.47h-25.02v49h-42.5v25.66l5.47-5.47c1.66-1.66,4.35-1.66,6.01,0,1.66,1.66,1.66,4.35,0,6.01l-10.58,10.58c-1.38,1.38-3.21,2.14-5.16,2.14s-3.78-.76-5.16-2.14l-10.58-10.58c-1.66-1.66-1.66-4.35,0-6.01,1.66-1.66,4.35-1.66,6.01,0l5.47,5.47v-25.66H60c-.29,0-.58-.03-.86-.09v87.38H242.25V59.83h-87.3v34.92Z"/><path class="e" d="M272.45,50.19c0-2.35-1.9-4.25-4.25-4.25h-13.75v-13.75c0-2.35-1.9-4.25-4.25-4.25s-4.25,1.9-4.25,4.25v22.25h22.25c2.35,0,4.25-1.9,4.25-4.25Z"/><path class="e" d="M51.19,27.94c-2.35,0-4.25,1.9-4.25,4.25v13.75h-13.75c-2.35,0-4.25,1.9-4.25,4.25s1.9,4.25,4.25,4.25h22.25v-22.25c0-2.35-1.9-4.25-4.25-4.25Z"/><path class="e" d="M28.94,249.19c0,2.35,1.9,4.25,4.25,4.25h13.75v13.75c0,2.35,1.9,4.25,4.25,4.25s4.25-1.9,4.25-4.25v-22.25h-22.25c-2.35,0-4.25,1.9-4.25,4.25Z"/><path class="e" d="M268.19,244.94h-22.25v22.25c0,2.35,1.9,4.25,4.25,4.25s4.25-1.9,4.25-4.25v-13.75h13.75c2.35,0,4.25-1.9,4.25-4.25s-1.9-4.25-4.25-4.25Z"/></g></g></g></g></svg>