<?xml version="1.0" encoding="UTF-8"?><svg xmlns="http://www.w3.org/2000/svg" viewBox="0 0 300 300"><defs><style>.e{fill:#fff;}.f{fill:#e84e0f;}</style></defs><g id="a"/><g id="b"><g id="c"><g><g id="d"><rect class="f" width="300" height="300" rx="20" ry="20"/></g><path class="e" d="M90.79,202.19c-.6,0-1.17,.02-1.73,0-1.82-.08-2.77-1.12-2.28-2.89,.41-1.48,1.24-2.86,1.91-4.26,.25-.51,.6-.97,1.01-1.64-1.12-.32-2.09-.6-3.41-.98,.49-1.25,.95-2.49,1.46-3.69,.96-2.26,2.02-4.48,2.89-6.77,.34-.89,.26-1.93,.38-2.93-2.75-.29-5.31-.42-7.82-.86-5.05-.87-9.54-2.87-12.62-7.21-3.22-4.54-3.43-9.61-2.12-14.75,.72-2.81,1.71-5.65,3.1-8.18,3.6-6.55,3.67-13.3,1.82-20.27-.54-2.02-1.2-4-1.84-6.13,2.63-.35,5.14-.48,7.5,1.12-.15-1.94-.4-3.7-.38-5.47,.04-2.96,.93-3.46,3.59-2.2,.74,.35,1.44,.77,2.38,1.28,.18-1.83,.36-3.43,.49-5.04,.13-1.56,.2-3.12,.3-4.68,2.66,.28,3.83,1.03,6.57,4.17,3.41-3.9,5.36-8.44,6.15-13.5,.59-3.79,.55-7.52-1.17-11.07-.61-1.26-1.17-2.09-2.94-1.68-2.45,.57-4.47-.83-5.87-2.64-4.09-5.26-5.14-11.15-2.89-17.48,.85-2.38,2.56-4.13,4.82-5.41,.12,.24,.25,.37,.24,.5-.17,5.02,2.49,8.41,6.48,10.91,2.3,1.44,4.77,2.62,7.12,3.99,1.67,.97,3.04,2.15,3,4.41-.05,2.76-.73,3.86-3.5,4.75,.41,2.28,.85,4.58,1.24,6.89,1.81,10.58-.61,20.39-5.4,29.78-3.81,7.47-8.94,14.04-13.91,20.72-3.26,4.38-5.93,9.08-6.62,14.57-.3,2.39-.17,4.95,.36,7.31,.96,4.26,4.06,6.34,9.15,6.55,1.67,.07,3.35-.13,5.01-.29,.4-.04,.92-.34,1.12-.68,2.93-5.12,7.58-8.46,12.17-11.87,4.34-3.22,8.69-6.41,12.15-10.64,4.41-5.4,7.04-11.6,8.39-18.39,.03-.15-.01-.31-.04-.74l-4.25,.85-1.19-11.5c-1.16,1.47-2.15,2.74-3.23,4.11-2.39-.73-4.28-3.64-4.48-7.41-.06-1.2,.16-6,.27-7.35l-2.27,.2c-.02-4.55,1.28-8.78,2.63-13.22-1.11,.14-4.04-.25-4-.42,1.01-4.1,1.45-8.4,4.08-11.94,.47-.63,.98-1.22,1.68-2.09l-2.61-.78c2.35-7.59,6.6-13.87,13.01-18.78-1.05-2.7-1.23-5.39,.18-8.03,1.44-2.7,4.48-4.28,7.49-3.82,.42,.06,.88,.34,1.17,.65,.46,.49,.91,1.05,1.17,1.66,.75,1.78,1.51,2.15,1.76,2.06,4.4-1.47,11.12-.9,15.61,.19,1.47,.36,2.14,1.11,2.27,2.71,.07,.85,.89,1.92,1.67,2.36,1.39,.79,3,1.19,4.52,1.74,2.92,1.05,5.93,2.25,6.5,5.69,.36,2.15-.07,4.45-.3,6.67-.11,1.02-1.55,4.34-2.6,5.05-2.84,1.9-5.31,.65-7.35-.81-.25-.18-2.06-1.91-2.91-.94-.53,.61-1.24,2.75,.82,3.91,2.24,1.27,5.41,1.56,8.46,1.56,9.9,0,10.9-11.42,16.69-11.42,1.63,0,1.88,2.79,.1,2.79-2.55,0-3.33,6.45-4.14,8.24-2.25,5-10.49,4.39-13.98,4.06-.17,.99-.27,1.13-.56,2.23-.7,2.66-2.31,3.57-4.97,2.77-1.84-.55-3.65-1.23-5.56-1.87-1.08,2.05-1,4.04-.15,5.97,.21,.47,1.05,.75,1.66,.92,1.81,.52,3.68,.84,5.47,1.42,6,1.94,7.31,3.8,7.13,10.14,.57-.1,1.16-.06,1.6-.3,10.72-5.58,19.2-13.13,21.83-25.57,.54-2.54,.71-5.2,.75-7.81,.08-5.41,1.71-10.05,6.31-13.18,3.62-2.47,7.6-3.05,11.59-.87,3.84,2.1,5.55,5.63,6.14,9.99h-2.94c.42,2.53,.83,4.94,1.2,7.2-1.93,.17-3.52,.1-5,.48-2.46,.64-2.9,2.7-1.09,4.51,.74,.74,1.62,1.32,2.36,2.06,1.5,1.49,1.18,2.79-.8,3.46-.74,.25-1.49,.49-2.23,.74-3.86,1.32-4.82,2.94-4.18,6.78,.76,.23,1.69,.23,2.03,.68,.61,.83,.07,3.78-.59,4.2-1.11,.7-2.28,1.3-3.36,2.03-.82,.55-1.64,1.15-2.28,1.89-1.01,1.16-.84,2.34,.22,3.44,.61,.63,1.15,1.32,1.88,2.17-1.79,1.28-3.53,2.36-5.08,3.67-1.62,1.37-3.16,2.86-4.55,4.46-1.64,1.89-3.69,3.06-5.95,3.96-2.17,.86-4.13,2.05-5.63,3.89-.19,.23-.35,.49-.66,.94,2.1,.82,4.04,1.68,6.06,2.36,7.84,2.63,15.87,3.91,24.14,2.91,.71-.09,1.48-.69,2-1.25,3.42-3.71,7.5-5.69,12.61-4.75,4.37,.8,5.43,3.17,3.31,7.06,3.32,2.44,3.96,3.98,3.35,8.46l-4.5,.27c0,1.3,0,2.6,0,3.89,0,.94,.05,1.9-.1,2.83-.24,1.46-1.05,2.49-2.65,2.68-1.9,.22-2.82-.26-3.53-1.86-1.16-2.58-5.24-3.18-7.09-1.04-.82,.95-1.59,1.95-2.43,2.89-1.29,1.45-2.08,1.51-3.61,.26-1.05-.86-2.03-1.82-3.06-2.71-.3-.26-.68-.68-1-.66-2.44,.13-4.88,.35-7.17,.53-.31,1.47-.51,2.75-.87,3.99-.35,1.2-1.23,1.4-2.19,.71-1.01-.73-1.91-1.63-2.9-2.39-1.62-1.24-2.25-1.12-3.44,.54-.3,.42-.62,.85-1,1.21-1.62,1.51-2.59,1.39-3.75-.46-.58-.93-1.13-1.89-1.7-2.83-.05-.08-.16-.13-.36-.28-.94,3.74-3.92,4.29-7.05,4.66-.52-1.84-.94-3.61-1.52-5.33-.45-1.31-1.41-2.22-2.85-2.41-.31-.04-.91,.22-.96,.45-1.21,5.09-4.95,8.28-8.66,11.44-6.34,5.42-13.5,9.54-21.1,12.93-.86,.38-1.63,.96-2.44,1.45l.22,.51c1-.18,2-.34,2.99-.55,5.99-1.25,11.97-2.58,17.98-3.71,1.88-.35,3.87-.11,5.81-.23,.54-.03,1.2-.25,1.56-.62,2.24-2.33,7.66-2.65,9.83-.28,.7,.76,.61,2.23,.98,3.78,4.4,1.1,7.41,4.03,7.4,9.54h-2.76c.96,1.52,2.06,2.81,2.61,4.3,.57,1.51,.59,3.22,.89,5.03-1.75-.19-3.1-.34-4.83-.52,.95,2.78,1.58,5.29,2.64,7.59,2.8,6.04,11.12,6.59,14.97,1.02,1-1.45,1.7-3.12,2.46-4.73,1.87-3.95,6.6-6.77,10.99-6.51,3.42,.21,4.93,2.14,4.4,5.87,.91,.26,1.85,.51,2.77,.81,2.41,.77,4.4,2.01,5,4.7,.39,1.79-.14,2.58-1.97,2.46-4.05-.28-3.38,1.12-2.43,3.72,.32,.89,.7,1.75,1.02,2.64,.76,2.07,.41,2.68-1.85,2.77-1.67,.07-3.35-.09-5.03-.17-.31-.01-.62-.11-.93-.14-2.68-.24-3.41,.4-3.52,3.09,0,.21,0,.42-.01,.63-.06,3.55-.81,4.05-4.19,2.79-.59-.22-1.24-.37-1.73-.73-2.66-1.96-5.29-.52-8.13-.17,.32,2.15,.62,4.14,.94,6.25-8.73-.59-16.75-2.27-22.3-9.61-3.16-4.17-6.11-8.5-9.27-12.67-2.01-2.65-4.57-4.74-7.48-6.39-4-2.26-8.41-2.26-12.71-1.94-3.88,.29-7.7,1.36-11.6,2.09,2.09,5.76,2.65,11.27,1.5,16.9-.97,4.76-3.1,5.74-7.54,3.4-1.35,1.78-2.72,3.6-4.11,5.41-2.14,2.79-3,2.69-4.43-.51-.3-.66-.55-1.35-.95-2.35-.69,1.5-1.23,2.74-1.82,3.95-1.68,3.42-3.32,3.53-5.47,.38-.32-.47-.61-.95-1.04-1.61-3.13,4.49-5.72,9.03-6.08,14.43-.33,4.92,2.91,6.98,8.36,6.34,1.69-.2,3.42-1.33,4.83-2.41,3.09-2.35,6.25-2.37,9.61-.89,.43,.19,.84,.43,1.22,.7,2.61,1.89,2.43,3.54-.51,4.89-.18,.08-.36,.18-.76,.39,.63,.48,1.15,.87,1.66,1.27,1.9,1.5,3.81,3.01,4.39,5.54,.4,1.73-.06,2.23-1.84,2-.78-.1-1.54-.32-2.31-.47-1.57-.3-1.87-.01-1.65,1.62,.13,.99,.33,1.97,.39,2.96,.12,1.71-1.18,2.64-2.86,1.92-2.23-.95-4.67-1.44-7.07-1.91-1.52-.3-2.84,.22-2.94,2.15-3.08,.22-5.34-1.05-7.09-3.39-.54-.71-1.04-1.46-1.65-2.1-1.13-1.18-2.35-2.06-4.2-2.05-6.35,.05-9.87-3.46-10.14-9.87-.11-2.67-.2-5.35-.3-8.02-.05-1.48-.62-2.67-1.67-3.76-1.34-1.39-2.66-2.85-3.69-4.46-1.66-2.6-1.31-4.36,1.14-6.28,1.81-1.42,3.8-2.6,5.65-3.97,2.2-1.64,3.68-3.72,3.59-6.62,0-.2-.07-.39-.12-.72Z"/></g></g></g></svg>