<?xml version="1.0" encoding="UTF-8"?><svg xmlns="http://www.w3.org/2000/svg" viewBox="0 0 300 300"><defs><style>.e{fill:#fff;}.f{fill:#36a9e1;}</style></defs><g id="a"/><g id="b"><g id="c"><g><g id="d"><rect class="f" width="300" height="300" rx="20" ry="20"/></g><path class="e" d="M235.39,177.13c6.46-4.77,11.07-9.81,13.02-14.53,1.82-4.4,1.1-7.75,.19-9.79-1.84-4.1-7.06-8.94-21.41-8.7-1.42,.02-2.88,.1-4.37,.22,8.34-13.11,11.89-26.23,4.95-33.17-6.03-6.03-16.74-4.14-28.05,1.94,2.12-14.88,.12-27.68-8.5-31.37-2.19-.94-5.81-1.65-10.57,.32-5.02,2.08-10.38,6.82-15.46,13.4-3.67-12.66-9.98-21.92-18.68-21.92s-14.8,8.97-18.5,21.32c-4.95-6.27-10.13-10.79-15-12.8-4.76-1.97-8.37-1.26-10.57-.32-8.62,3.7-10.62,16.49-8.5,31.37-11.31-6.07-22.01-7.97-28.05-1.94-6.94,6.94-3.39,20.06,4.95,33.17-1.5-.12-2.96-.2-4.37-.22-.33,0-.66,0-.99,0-13.61,0-18.62,4.71-20.42,8.71-.92,2.04-1.63,5.4,.19,9.79,1.95,4.72,6.56,9.76,13.02,14.53-11.22,3.76-19.15,9.76-19.15,17.81,0,14.58,26,22.44,50.46,22.44s50.46-7.87,50.46-22.44c0-2.15-.58-4.16-1.63-6.01,.8-1.8,1.43-4.61,.34-8.24,.29-.44,.57-.89,.8-1.37,.73-.17,1.39-.39,1.94-.63,2.11-.91,3.83-2.36,5.18-4.25,.11,0,.21-.01,.32-.02,1.36,1.9,3.08,3.36,5.19,4.27,.56,.24,1.21,.46,1.94,.63,.23,.48,.5,.93,.8,1.37-1.09,3.63-.46,6.44,.34,8.24-1.05,1.86-1.63,3.86-1.63,6.01,0,14.58,26,22.44,50.46,22.44s50.46-7.87,50.46-22.44c0-8.05-7.93-14.05-19.15-17.81Zm5.45-20.84c.34,.75,.24,1.78-.29,3.06-1.62,3.93-7.16,9.5-16.23,14.96-6.47-1.2-13.41-1.81-20.23-1.81-2.53,0-5.08,.09-7.62,.26,3.99-3.04,7.88-6.45,11.48-10.05,2.82-2.82,5.53-5.83,8.03-8.92,13.8-2.5,23.33-.89,24.86,2.51Zm-108.17-37.13c.84,1.81,1.61,3.6,2.31,5.35,6.54,16.35,8.16,30.25,6.98,38.5-4.73-5.78-9.39-19.79-9.39-39.03,0-1.65,.04-3.25,.1-4.82Zm-23.72,16.73c-.28-.69-.54-1.38-.8-2.07,1.09,1.01,2.19,2.05,3.29,3.15,12.6,12.6,19.19,24.84,20.69,32.49-8.78-5.25-18-20.62-23.18-33.57Zm18.21,41.82c-6.96-.08-20.36-6.33-34.35-19.96,1.44,.49,2.89,1.01,4.37,1.57,14.79,5.65,24.94,12.71,29.98,18.38Zm31.52-53.2c.53-1.32,1.1-2.67,1.71-4.03,.03,1.15,.06,2.31,.06,3.5,0,18.49-4.3,32.15-8.84,38.31-.99-8.33,.71-21.9,7.07-37.79Zm37.79,34.82c1.48-.57,2.94-1.09,4.38-1.58-13.99,13.64-27.4,19.88-34.36,19.96,5.04-5.68,15.19-12.74,29.98-18.38Zm-34.94,10.13c1.5-7.64,8.09-19.89,20.69-32.49,1.1-1.1,2.2-2.16,3.3-3.17-.26,.69-.53,1.39-.81,2.09-5.18,12.95-14.4,28.32-23.18,33.57Zm49.02,11.72c-1.03,.43-2.07,.85-3.15,1.26-17.54,6.69-32.1,7.8-39.45,5.99,6.9-3.98,19.58-7.43,36.14-7.43,2.23,0,4.38,.07,6.46,.18Zm11.2-64.02c3.22,3.22,.18,15.02-10.45,28.89-5.79,1.24-11.83,3.03-17.85,5.33-2.98,1.14-5.86,2.36-8.61,3.66,2.83-4.85,5.47-10.24,7.77-15.99,1.92-4.8,3.55-9.78,4.83-14.73,11.83-7.94,21.45-10.01,24.31-7.16Zm-37.85-27.27c1.62-.67,2.96-.8,3.96-.37,4.08,1.75,5.88,13.3,2.12,29.68-4.79,3.45-9.49,7.46-13.77,11.75-2.98,2.98-5.82,6.16-8.44,9.43,.78-5.34,1.18-10.91,1.18-16.41s-.44-11.6-1.3-17.17c4.98-7.96,10.77-14.65,16.25-16.92Zm-37.39-7.87c4.11,0,9.56,8.55,12.27,22.96-2.92,4.95-5.63,10.47-7.99,16.36-1.5,3.76-2.83,7.63-3.96,11.52-1.12-3.88-2.45-7.76-3.96-11.52-2.49-6.22-5.37-12.02-8.47-17.18,2.76-13.92,8.08-22.14,12.11-22.14Zm-40.71,7.5c.39-.17,.83-.25,1.32-.25,.77,0,1.65,.21,2.64,.62,5.29,2.19,10.87,8.5,15.73,16.09-.94,5.81-1.42,11.95-1.42,17.99,0,5.16,.35,10.39,1.04,15.43-2.4-2.93-4.97-5.77-7.66-8.46-4.29-4.29-8.98-8.3-13.77-11.75-3.76-16.38-1.96-27.93,2.12-29.68Zm-33.88,27.63c.81-.81,2.15-1.22,3.94-1.22,4.53,0,11.89,2.69,20.37,8.38,1.28,4.95,2.91,9.93,4.83,14.72,2.3,5.75,4.94,11.14,7.77,15.99-2.75-1.29-5.63-2.52-8.61-3.66-6.02-2.3-12.07-4.09-17.85-5.33-10.63-13.87-13.67-25.67-10.45-28.89Zm-18.81,42.19c-.53-1.28-.63-2.31-.29-3.06,1.02-2.26,5.56-3.73,12.54-3.73,3.53,0,7.68,.38,12.32,1.22,2.51,3.09,5.21,6.1,8.03,8.92,3.6,3.6,7.49,7.01,11.48,10.05-2.54-.17-5.09-.26-7.62-.26-6.82,0-13.77,.61-20.23,1.81-9.08-5.45-14.61-11.03-16.23-14.96Zm72.6,29.08c-7.34,1.81-21.91,.71-39.45-5.99-1.08-.41-2.12-.83-3.15-1.26,2.08-.12,4.23-.18,6.46-.18,16.56,0,29.24,3.45,36.14,7.43Zm-36.14,20.45c-25.61,0-41.96-8.26-41.96-13.94,0-3.84,7.47-8.85,20.2-11.7,4.67,2.6,9.86,5.03,15.41,7.15,11.88,4.54,23.86,7.12,33.75,7.28,.34,0,.67,0,.99,0,6.05,0,10.4-.93,13.52-2.32-.77,5.66-16.93,13.52-41.92,13.52Zm114.51,0c-24.99,0-41.15-7.86-41.92-13.52,3.13,1.39,7.47,2.32,13.52,2.32,.33,0,.66,0,.99,0,9.88-.16,21.87-2.75,33.75-7.28,5.55-2.12,10.74-4.54,15.41-7.15,12.74,2.85,20.2,7.86,20.2,11.7,0,5.68-16.34,13.94-41.96,13.94Z"/></g></g></g></svg>