<?xml version="1.0" encoding="UTF-8"?><svg xmlns="http://www.w3.org/2000/svg" viewBox="0 0 300 300"><defs><style>.f{fill:#fff;}.g{fill:#3aaa35;fill-rule:evenodd;}</style></defs><g id="a"/><g id="b"><g id="c"><g id="d"><g id="e"><path class="g" d="M300,20c0-11.05-8.95-20-20-20H20C8.95,0,0,8.95,0,20V280c0,11.05,8.95,20,20,20H280c11.05,0,20-8.95,20-20"/></g><g><path class="f" d="M96.91,193.9h-28.25c-.36-7.23,.9-14.63,3.9-21.22,.6-1.32,4.08-5.3,4.08-6.37,0,2.9,1.58,6.32,4.21,9.21,2.37,2.63,5.26,4.21,7.9,4.74,2.37,.53,4.74,0,6.32-1.58,2.63-2.37-.42-19.74-14.74-19.74-.79,.26-1.58,.26-2.11,.53-6.32,2.63-10,9.74-12.11,16.06-3.69-4.47-11.05-5-13.69-2.9,0,0,2.37,8.95,12.11,8.16-.53,2.11-.53,3.68-.79,4.47-.44,3.06-.33,5.94-.13,8.64h-26.19c-3.42,0-6.09,2.68-6.09,6.09v11.84c0,3.42,2.68,6.09,6.09,6.09h.11l7.03,36.4,.05,.22c.73,2.93,3.46,5.06,6.49,5.06h33.17c2.97,0,5.47-2.03,6.23-5.06l6.33-36.63h.08c3.25,0,6.09-2.85,6.09-6.09v-11.84c0-3.42-2.68-6.09-6.09-6.09Zm-44.3,57.22l-6.41-33.18h42l-5.72,33.18h-29.88Zm-11.08-41.69h-1.7v-7.03h54.67v7.03H41.53Z"/><path class="f" d="M184.78,200c0-3.42-2.68-6.09-6.09-6.09h-25.87c-1.07-7.13-.87-19.22,2.34-23.9,16.32-4.21,17.9-19.48,17.9-19.48-12.9-1.05-17.64,3.42-20.53,11.58-1.58-21.06-22.11-23.16-22.11-23.16-5,16.32,3.16,26.85,15.79,31.32,0,0,1.05,.26,2.63,.53-1.05,2.9-1.58,6.58-1.84,10.53-3.68-4.47-11.05-5-13.69-3.16,0,0,2.63,9.74,13.42,8.16,0,2.64,.19,5.25,.56,7.59h-28.09c-3.42,0-6.09,2.68-6.09,6.09v11.84c0,3.42,2.68,6.09,6.09,6.09h.12l7.03,36.4,.05,.23c.74,2.93,3.47,5.06,6.49,5.06h33.17c2.97,0,5.47-2.04,6.23-5.06l6.33-36.62h.08c1.95,0,3.8-.88,4.95-2.36,.92-1.17,1.32-2.63,1.14-4.08v-11.5Zm-50.4,51.12l-6.41-33.18h42l-5.72,33.18h-29.88Zm-11.08-41.69h-1.7v-7.03h54.67v7.03h-52.97Z"/><path class="f" d="M260.51,193.9h-27.04c-1.12-7.01-.95-18.49,2.29-23.23,16.06-3.68,17.64-19.21,17.64-19.21-8.16-.53-12.9,1.05-16.06,4.21,.26-2.9,.53-7.39,.53-8.71,11.05,1.58,13.42-8.16,13.42-8.16-2.63-2.11-10-1.32-13.69,3.16-.26-3.95-.79-6.7-1.84-9.6,1.32-.26,2.63-.53,2.63-.53,12.63-4.47,20.53-15,15.79-31.32,0,0-20.79,1.84-22.11,23.16-2.9-7.9-7.63-12.37-20.53-11.58,0,0,1.58,15.53,17.9,19.48,3.95,7.63,3.42,17.11,2.37,24.74-4.47-15.79-21.06-17.37-21.06-17.37-4.74,16.32,3.42,26.58,16.06,31.06,0,0,1.05,.26,2.63,.53-1.05,2.9-1.58,6.58-1.84,10.53-3.68-4.47-11.05-5-13.69-3.16,0,0,2.63,9.74,13.42,8.16,0,2.74,.21,5.45,.61,7.85h-26.93c-3.42,0-6.09,2.68-6.09,6.09v11.84c0,3.42,2.68,6.09,6.09,6.09h.11l7.03,36.4,.05,.23c.74,2.93,3.47,5.06,6.49,5.06h33.17c2.97,0,5.47-2.04,6.23-5.06l6.33-36.62h.08c3.42,0,6.09-2.68,6.09-6.09v-11.84c0-3.42-2.68-6.09-6.09-6.09Zm-44.3,57.22l-6.41-33.18h42l-5.72,33.18h-29.88Zm-11.08-41.69h-1.7v-7.03h54.67v7.03h-52.97Z"/></g></g></g></g></svg>