<?xml version="1.0" encoding="UTF-8"?><svg xmlns="http://www.w3.org/2000/svg" viewBox="0 0 300 300"><defs><style>.d{fill:#fff;}.e{fill:#e84e0f;}</style></defs><g id="a"/><g id="b"><g id="c"><g><g><rect class="d" x="28.9" y="23.15" width="247.18" height="265.93"/><path class="e" d="M156.72,82.25l-33.5-4.11-30.95-3.79c-2.78-.34-5.22,1.83-5.22,4.62v71.65c0,2.35,1.75,4.34,4.09,4.62l32.28,3.96,24.91,3.05,7.27,.89c2.78,.34,5.22-1.83,5.22-4.62V86.87c0-2.35-1.75-4.34-4.09-4.62Zm-14.79,65.41c-1.13,.88-2.49,1.25-3.96,1.08-1.36-.16-2.39-.7-3.15-1.3-.37-.29-.68-.6-.92-.88-.82-.96-1.44-2.1-1.83-3.38l-1.93-6.16-5.29-.63-10.25-1.21-1.93,5.71c-.75,2.25-3.75,4.79-7.63,3.65-3.79-1.12-5-4.48-3.36-9.68,.03-.09,.52-1.52,1.29-3.78,3.44-10,12.52-36.39,12.52-36.39,.45-1.43,1.17-2.72,2.1-3.73,.88-.96,2.46-2.03,5-1.72,2.54,.3,4.12,1.75,5,2.92,.93,1.23,1.65,2.69,2.13,4.33l8.63,27.08,4.81,15.09c.06,.27,.18,.67,.35,1.21,.35,1.14,.51,2.13,.51,3.02,0,2.02-.74,3.71-2.1,4.78Z"/><path class="e" d="M89.92,165.16c-2.56-.31-4.9-1.29-6.87-2.74l-22.52,.2c-2.42,.02-4.23,1.81-4.23,4.16v71.65c0,2.8,2.53,5.24,5.41,5.21l72.93-.65c2.42-.02,4.23-1.81,4.23-4.16v-67.67l-15.45-1.89-33.5-4.11Zm35.06,37.29v13.97c0,1.34-.36,2.37-.86,3.17-.47,.74-1.06,1.28-1.6,1.65-1.32,.9-2.96,1.38-4.75,1.38h-41.79c-1.78,0-3.42-.48-4.74-1.38-1.12-.77-2.46-2.23-2.46-4.82v-13.14c0-2.3,.45-4.39,1.32-6.22,.88-1.83,2.08-3.4,3.56-4.67,1.47-1.25,3.15-2.22,5-2.88,1.85-.66,3.73-.99,5.6-.99,3.45,0,6.47,.74,9,2.19,.2,.12,.39,.23,.58,.35,.67-.82,1.43-1.56,2.28-2.24h0c1.4-1.11,3.05-1.99,4.9-2.61,1.85-.62,3.84-.94,5.9-.94,2.41,0,4.73,.4,6.9,1.17,2.2,.79,4.15,1.95,5.81,3.44,1.58,1.42,2.84,3.16,3.78,5.16,.04,.1,.1,.18,.14,.28,.94,2.1,1.42,4.49,1.42,7.11Z"/><polygon class="e" points="118.3 122.12 125.96 123.12 122.24 110.48 118.3 122.12"/><path class="e" d="M88.23,201.46c-.75-.6-1.67-.89-2.88-.89-1.56,0-2.3,.44-2.72,.77-.7,.55-.8,1.85-.8,2.59v6.65h7.38v-6.47c0-1.86-.73-2.45-.97-2.64Z"/><path class="e" d="M110.44,198.61c-.87-.88-1.96-1.28-3.52-1.28-.73,0-1.38,.1-2.01,.32-.55,.19-1.02,.47-1.44,.85-.45,.41-.8,.92-1.07,1.54-.28,.65-.42,1.46-.42,2.41v8.12h9.95v-7.88c0-1.73-.49-3.06-1.49-4.08h0Z"/><path class="e" d="M240.37,125.88l-23.44,11.8c-.29,3.78-2.03,7.32-4.88,9.85-1.31,1.16-12.75,6.76-24.3,12.28v67.55c0,2.77,1.88,4.26,4.01,3.19l49.48-24.91c1.79-.9,3.14-3.33,3.14-5.66v-70.9c0-2.77-1.88-4.26-4.01-3.19Zm-9.02,67.72c-.76,1.53-1.74,3-2.98,4.51-1.12,1.36-2.41,2.66-3.85,3.88-1.43,1.21-2.98,2.25-4.6,3.1-2.76,1.44-5.26,1.91-7.41,1.4-2.12-.51-3.92-1.75-5.34-3.7-1.39-1.89-2.45-4.37-3.15-7.36-.69-2.91-1.04-6.14-1.04-9.6s.35-7.05,1.04-10.68c.7-3.73,1.77-7.33,3.18-10.68,1.44-3.43,3.26-6.56,5.41-9.29,2.18-2.77,4.72-4.92,7.53-6.39,1.68-.87,3.23-1.38,4.63-1.51,1.38-.13,2.6,0,3.62,.4,1.09,.42,1.92,1.01,2.56,1.82,.85,1.07,1.28,2.42,1.28,3.99s-.34,3.32-.98,4.9c-.79,1.96-1.97,3.43-3.33,4.14-1.09,.57-2.13,.53-3-.12-.35-.26-.77-.52-1.26-.79-.38-.21-.89-.35-1.49-.41-.31-.03-.92,.05-2.03,.62-1.33,.69-2.41,1.63-3.3,2.87-.96,1.33-1.72,2.78-2.32,4.43-.65,1.77-1.13,3.66-1.44,5.62-.33,2.1-.49,4.15-.49,6.07s.17,3.77,.51,5.52c.32,1.66,.81,3.06,1.45,4.17,.59,1.03,1.33,1.7,2.25,2.05,.83,.32,1.85,.16,3.1-.5,.92-.48,1.71-1.05,2.32-1.68,.76-.78,1.43-1.54,1.98-2.27,.63-.83,1.19-1.58,1.65-2.24,2.19-3.11,4.58-3.89,5.96-2.24,.49,.59,1.08,1.77,1.08,4.05,0,1.27-.27,3.34-1.58,5.95Z"/></g><path class="e" d="M280,0H20C8.95,0,0,8.95,0,20V280c0,11.05,8.95,20,20,20H280c11.05,0,20-8.95,20-20V20c0-11.05-8.95-20-20-20Zm-25.94,198.32c0,7.32-4.25,14.97-9.88,17.81l-49.48,24.91c-.46,.23-.91,.42-1.37,.58-1.71,.59-3.4,.67-4.93,.24-.55-.15-21.85-5.86-39.18-10.74v7.71c0,7.86-6.36,14.08-14.48,14.16l-72.95,.65h-.15c-4.05,0-8.05-1.61-10.99-4.42-2.99-2.86-4.71-6.79-4.71-10.79v-71.65c0-3.38,1.47-6.25,3.16-8.87,2.83-4.38,12.35-21.09,14.26-23.56,1.6-2.07,4.49-2.97,7.42-3l6.26-.06v-52.34c0-4.2,1.8-8.2,4.94-10.98,3.14-2.78,48.1-23.46,49.17-24.01,2.59-1.34,5.56-1.88,8.5-1.52l64.46,7.9c7.34,.9,12.87,7.15,12.87,14.55v43.03c15.51,4.25,32.01,8.93,33.27,9.93,2.41,1.92,3.8,5.4,3.8,9.55v70.9Z"/></g></g></g></svg>