<?xml version="1.0" encoding="UTF-8"?><svg xmlns="http://www.w3.org/2000/svg" viewBox="0 0 300 300"><defs><style>.e{fill:#fffdfe;}.f{fill:#e83181;}</style></defs><g id="a"/><g id="b"><g id="c"><g><g id="d"><rect class="f" width="300" height="300" rx="20" ry="20"/></g><g><path class="e" d="M114.53,148.09l35.65-35.48-8.07-8.07-13.09,13.09c-.83,.83-1.92,1.25-3.01,1.25s-2.18-.42-3.01-1.25c-1.66-1.66-1.66-4.35,0-6.01l13.09-13.09-8.54-8.54-6.96,6.96c-.83,.83-1.92,1.25-3.01,1.25s-2.18-.42-3.01-1.25c-1.66-1.66-1.66-4.35,0-6.01l6.96-6.96-8.54-8.54-13.09,13.09c-.83,.83-1.92,1.25-3.01,1.25s-2.18-.42-3.01-1.25c-1.66-1.66-1.66-4.35,0-6.01l13.09-13.09-2.9-2.9c-1.19-1.19-2.74-1.78-4.3-1.78s-3.12,.59-4.3,1.78l-26.96,26.96c-2.37,2.37-2.37,6.23,0,8.6l46.01,46.01Z"/><path class="e" d="M229.44,191.87l-13.09,13.09c-.83,.83-1.92,1.25-3.01,1.25s-2.18-.42-3.01-1.25c-1.66-1.66-1.66-4.35,0-6.01l13.09-13.09-8.54-8.54-6.96,6.96c-.83,.83-1.92,1.25-3.01,1.25s-2.18-.42-3.01-1.25c-1.66-1.66-1.66-4.35,0-6.01l6.96-6.96-8.54-8.54-13.09,13.09c-.83,.83-1.92,1.25-3.01,1.25s-2.18-.42-3.01-1.25c-1.66-1.66-1.66-4.35,0-6.01l13.09-13.09-8.15-8.15-35.65,35.47,45.4,45.4c2.37,2.37,6.23,2.37,8.6,0l26.96-26.96c1.15-1.15,1.78-2.68,1.78-4.3s-.63-3.15-1.78-4.3l-2.04-2.04Z"/><path class="e" d="M79.33,195.11l-9.37,27.03c-.17,.12-.34,.25-.49,.4l-4.67,4.67c-1.38,1.38-1.38,3.63,0,5.01,.69,.69,1.6,1.04,2.51,1.04s1.81-.35,2.51-1.04l4.34-4.34,29.21-8.88,.44-.44-23.96-23.96-.51,.51Z"/><polygon class="e" points="217.67 105.26 193.71 81.3 190.25 84.74 214.2 108.7 217.67 105.26"/><path class="e" d="M232.07,90.93c4.26-4.26,4.26-11.19,0-15.44l-8.52-8.52c-4.26-4.26-11.19-4.26-15.44,0l-8.37,8.33,23.96,23.96,8.37-8.33Z"/><polygon class="e" points="117.53 157.1 114.51 160.1 85.87 188.61 95.05 197.79 123.63 169.22 126.63 166.21 129.64 163.2 165.2 127.64 168.21 124.63 171.22 121.63 193.16 99.69 184.22 90.74 162.22 112.63 159.21 115.63 156.19 118.63 120.54 154.1 117.53 157.1"/><polygon class="e" points="180.15 142.59 183.17 139.59 184.1 138.66 186.18 136.59 208.18 114.7 199.17 105.7 177.23 127.64 174.22 130.65 171.22 133.65 135.66 169.22 132.65 172.22 129.64 175.23 101.07 203.81 109.83 212.57 138.47 184.06 141.49 181.06 144.5 178.06 171.75 150.95 180.15 142.59"/></g></g></g></g></svg>