<?xml version="1.0" encoding="UTF-8"?><svg xmlns="http://www.w3.org/2000/svg" viewBox="0 0 300 300"><defs><style>.e{fill:#fff;}.f{fill:#e84e0f;}</style></defs><g id="a"/><g id="b"><g id="c"><g><g id="d"><rect class="f" x="0" width="300" height="300" rx="20" ry="20"/></g><g><path class="e" d="M206.46,79.07c2.46,0,4.19-1.72,4.19-4.19v-7.84c0-1.53-1.09-2.78-1.56-3.25l-.15-.12c-19.38-13.39-39.19-20.18-58.9-20.18s-39.44,6.79-58.65,20.17c-1.27,.85-2.04,2.11-2.04,3.38v7.84c0,2.46,1.72,4.19,4.19,4.19h1.77v13.58h-1.77c-2.46,0-4.19,1.72-4.19,4.19V248.33c0,2.01,1.6,4.19,4.19,4.19h112.91c2.46,0,4.19-1.72,4.19-4.19V96.84c0-2.46-1.72-4.19-4.19-4.19h-1.77v-13.58h1.77ZM97.73,244.14V101.02h104.54V244.14H97.73Zm5.96-151.49v-13.58h92.62v13.58H103.69Zm41.61-26.13h10.12c2.62-.21,5.33,1.45,6.99,4.17h-24.61c1.44-2.61,4.19-4.17,7.5-4.17Zm-.31-8.68c-7.71,0-14.53,5.33-16.22,12.55h-31.03v-1.21c17.47-11.54,35.05-17.39,52.27-17.39s34.81,5.85,52.27,17.39v1.21h-31.06c-1.99-7.43-8.53-12.55-16.19-12.55h-10.04Z"/><path class="e" d="M187.01,105.2H113.3c-2.46,0-4.19,1.72-4.19,4.19v120.13c0,2.21,1.8,3.87,4.19,3.87h73.71c2.46,0,4.19-1.72,4.19-4.19V109.38c0-2.46-1.72-4.19-4.19-4.19Zm-69.84,96.6v-16.09h15.47v16.09h-15.47Zm.31,23.52v-14.84h15.47v14.84h-15.47Zm-.31-47.99v-16.09h15.47v16.09h-15.47Zm0-24.46v-16.41h15.47v16.41h-15.47Zm0-24.78v-14.84h15.47v14.84h-15.47Zm23.84,74.02v-16.09h17.66v16.09h-17.66Zm17.98,8.37v14.84h-17.66v-14.84h17.66Zm-17.98-82.39v-14.84h17.66v14.84h-17.66Zm17.98,33.15v16.09h-17.66v-16.09h17.66Zm-17.66-8.68v-16.09h17.66v16.09h-17.66Zm25.72,.31v-16.41h15.47v16.41h-15.47Zm15.78,32.83v16.09h-15.47v-16.09h15.47Zm0,24.46v14.84h-15.47v-14.84h15.47Zm-15.47-32.83v-16.09h15.47v16.09h-15.47Zm-.31-49.24v-14.84h15.47v14.84h-15.47Z"/></g></g></g></g></svg>