<?xml version="1.0" encoding="UTF-8"?><svg xmlns="http://www.w3.org/2000/svg" viewBox="0 0 300 300"><defs><style>.e{fill:#fff;}.f{fill:#951b81;}</style></defs><g id="a"/><g id="b"><g id="c"><g><g id="d"><rect class="f" width="300" height="300" rx="20" ry="20"/></g><g><path class="e" d="M160.7,197.9c6.2-9.13,9.59-19.96,9.59-31.39,0-6.13-1.09-11.77-3.02-16.94l-29.11,23.95c12.22,1.72,21.77,11.88,22.54,24.39Z"/><path class="e" d="M178.79,166.51c0,7.97-1.44,15.68-4.15,22.86l45.17-37.16c.96-.79,1.96-1.49,2.99-2.12,12.58-10.67,19.73-26.05,19.73-42.68,0-29.04-21.77-53.02-50.64-55.78-2.48-.24-4.99,.48-7.07,2.03l-65,48.06c36,10.08,58.98,35.11,58.98,64.79Z"/><path class="e" d="M117.56,179.45c.16-.14,.32-.27,.49-.4l45.4-37.35c-1.06-1.78-2.24-3.48-3.5-5.12h-35.47c-1.14,0-2.27,.38-3.17,1.08l-79.19,60.69H108.24c.31-6.88,3.27-13.07,7.88-17.59l-.06-.07,1.5-1.23Z"/><path class="e" d="M150.48,207.19c1.12-2.33,1.77-4.92,1.77-7.67,0-9.8-7.97-17.77-17.77-17.77-4.19,0-8.04,1.47-11.08,3.9l-.39,.32c-3.84,3.26-6.29,8.12-6.29,13.54,0,1.56,.22,3.07,.6,4.52,2.01,7.61,8.93,13.25,17.16,13.25,4.26,0,8.18-1.51,11.25-4.03,.37-.35,.75-.69,1.14-1.03,1.48-1.45,2.71-3.15,3.62-5.04Z"/><path class="e" d="M250.22,161.21c-5.61-6.82-15.27-8.36-22.66-4.04-.81,.47-1.6,1-2.35,1.61h0l-.06,.04-57.64,47.42c6.3,.88,12.3,4.03,16.65,9.31,4.22,5.13,6.31,11.53,5.94,18.12l57.68-47.46c7.56-6.22,8.66-17.44,2.43-25.01Z"/><path class="e" d="M163.86,214.48c-3.97,0-7.96,1.32-11.26,4.03h-.01c-.33,.28-.63,.58-.94,.87-.36,.34-.69,.69-1.02,1.06-.03,.03-.05,.05-.08,.08-.34,.39-.66,.78-.96,1.19-.01,.01-.02,.03-.03,.04-.29,.4-.56,.81-.82,1.23-.02,.02-.03,.05-.05,.07-.26,.43-.5,.87-.72,1.32,0,.01-.01,.02-.02,.03-.22,.46-.43,.92-.61,1.39v.02c-1.66,4.26-1.63,9.07,.18,13.36,.01,.03,.02,.07,.04,.1,.16,.37,.34,.73,.53,1.09,.06,.11,.1,.22,.16,.33,.25,.46,.53,.92,.82,1.37,.33,.5,.69,.99,1.08,1.46,3.02,3.67,7.28,5.94,12,6.4,.59,.06,1.18,.08,1.77,.08,4.1,0,8.04-1.41,11.24-4.05,3.67-3.02,5.94-7.28,6.4-12,.46-4.72-.95-9.34-3.96-13.01-3.51-4.26-8.6-6.47-13.74-6.47Z"/></g></g></g></g></svg>