<?xml version="1.0" encoding="UTF-8"?><svg xmlns="http://www.w3.org/2000/svg" viewBox="0 0 300.47 300.47"><defs><style>.w{fill:#fff;}</style></defs><g id="a"/><g id="b"/><g id="c"/><g id="d"/><g id="e"/><g id="f"/><g id="g"/><g id="h"/><g id="i"/><g id="j"/><g id="k"/><g id="l"/><g id="m"/><g id="n"/><g id="o"><g><path class="w" d="M65.91,77.72c0-1.52,1.23-2.75,2.75-2.75h76.1c1.52,0,2.75,1.23,2.75,2.75v40.04h14.89v-50.76c0-8.81-7.17-15.98-15.98-15.98H67c-8.81,0-15.98,7.17-15.98,15.98v56.72c4.03-3.48,9.21-5.68,14.89-5.93v-40.07Z"/><path class="w" d="M233.47,126.27H67c-.37,0-.73,.03-1.09,.06-8.3,.57-14.89,7.48-14.89,15.93v91.22c0,8.81,7.17,15.98,15.98,15.98H233.47c8.81,0,15.98-7.17,15.98-15.98v-91.22c0-8.81-7.17-15.98-15.98-15.98Zm-167.56,54.54c1.61-1.36,3.68-2.18,5.94-2.18,5.09,0,9.22,4.13,9.22,9.22,0,.32-.02,.64-.05,.95-.48,4.65-4.4,8.27-9.17,8.27-5.09,0-9.22-4.13-9.22-9.22,0-2.83,1.28-5.35,3.28-7.05Zm156.8,49.12c0,1.52-1.23,2.75-2.75,2.75H100.42c-1.17,0-2.17-.74-2.56-1.78-.11-.3-.19-.63-.19-.97v-84.14c0-1.52,1.23-2.75,2.75-2.75h119.55c1.52,0,2.75,1.23,2.75,2.75v84.14Z"/><path class="w" d="M255.42,91.88c-1.66-1.66-4.35-1.66-6.01,0l-6.2,6.2v-17.15c0-13.41-10.91-24.33-24.33-24.33h-26.57l6.83-6.83c1.66-1.66,1.66-4.35,0-6.01-1.66-1.66-4.35-1.66-6.01,0l-11.7,11.71c-2.97,2.97-2.97,7.8,0,10.77l11.7,11.7c.83,.83,1.92,1.25,3.01,1.25s2.18-.42,3.01-1.25c1.66-1.66,1.66-4.35,0-6.01l-6.83-6.83h26.57c8.73,0,15.82,7.1,15.82,15.82v18.39l-7.45-7.45c-1.66-1.66-4.35-1.66-6.01,0-1.66,1.66-1.66,4.35,0,6.01l11.71,11.7c1.44,1.44,3.35,2.23,5.39,2.23s3.95-.79,5.39-2.23l11.7-11.7c1.66-1.66,1.66-4.35,0-6.01Z"/></g></g><g id="p"/><g id="q"/><g id="r"/><g id="s"/><g id="t"/><g id="u"/><g id="v"/></svg>