<?xml version="1.0" encoding="UTF-8"?><svg xmlns="http://www.w3.org/2000/svg" viewBox="0 0 300.47 300.47"><defs><style>.w{fill:#fffdfe;}</style></defs><g id="a"/><g id="b"/><g id="c"/><g id="d"/><g id="e"/><g id="f"/><g id="g"/><g id="h"/><g id="i"/><g id="j"/><g id="k"/><g id="l"/><g id="m"/><g id="n"/><g id="o"/><g id="p"/><g id="q"/><g id="r"/><g id="s"/><g id="t"><g><path class="w" d="M114.76,148.33l35.65-35.48-8.07-8.07-13.09,13.09c-.83,.83-1.92,1.25-3.01,1.25s-2.18-.42-3.01-1.25c-1.66-1.66-1.66-4.35,0-6.01l13.09-13.09-8.54-8.54-6.96,6.96c-.83,.83-1.92,1.25-3.01,1.25s-2.18-.42-3.01-1.25c-1.66-1.66-1.66-4.35,0-6.01l6.96-6.96-8.54-8.54-13.09,13.09c-.83,.83-1.92,1.25-3.01,1.25s-2.18-.42-3.01-1.25c-1.66-1.66-1.66-4.35,0-6.01l13.09-13.09-2.9-2.9c-1.19-1.19-2.74-1.78-4.3-1.78s-3.12,.59-4.3,1.78l-26.96,26.96c-2.37,2.37-2.37,6.23,0,8.6l46.01,46.01Z"/><path class="w" d="M229.67,192.11l-13.09,13.09c-.83,.83-1.92,1.25-3.01,1.25s-2.18-.42-3.01-1.25c-1.66-1.66-1.66-4.35,0-6.01l13.09-13.09-8.54-8.54-6.96,6.96c-.83,.83-1.92,1.25-3.01,1.25s-2.18-.42-3.01-1.25c-1.66-1.66-1.66-4.35,0-6.01l6.96-6.96-8.54-8.54-13.09,13.09c-.83,.83-1.92,1.25-3.01,1.25s-2.18-.42-3.01-1.25c-1.66-1.66-1.66-4.35,0-6.01l13.09-13.09-8.15-8.15-35.65,35.47,45.4,45.4c2.37,2.37,6.23,2.37,8.6,0l26.96-26.96c1.15-1.15,1.78-2.68,1.78-4.3s-.63-3.15-1.78-4.3l-2.04-2.04Z"/><path class="w" d="M79.57,195.35l-9.37,27.03c-.17,.12-.34,.25-.49,.4l-4.67,4.67c-1.38,1.38-1.38,3.63,0,5.01,.69,.69,1.6,1.04,2.51,1.04s1.81-.35,2.51-1.04l4.34-4.34,29.21-8.88,.44-.44-23.96-23.96-.51,.51Z"/><polygon class="w" points="217.9 105.5 193.94 81.54 190.48 84.98 214.44 108.94 217.9 105.5"/><path class="w" d="M232.3,91.17c4.26-4.26,4.26-11.19,0-15.44l-8.52-8.52c-4.26-4.26-11.19-4.26-15.44,0l-8.37,8.33,23.96,23.96,8.37-8.33Z"/><polygon class="w" points="117.76 157.34 114.75 160.34 86.1 188.84 95.29 198.03 123.86 169.45 126.87 166.45 129.88 163.44 165.44 127.88 168.45 124.87 171.45 121.86 193.4 99.92 184.45 90.98 162.46 112.87 159.44 115.87 156.43 118.87 120.78 154.34 117.76 157.34"/><polygon class="w" points="180.39 142.83 183.4 139.83 184.34 138.89 186.42 136.83 208.41 114.94 199.41 105.94 177.47 127.88 174.46 130.88 171.45 133.89 135.89 169.45 132.88 172.46 129.88 175.47 101.3 204.04 110.06 212.8 138.71 184.3 141.72 181.3 144.74 178.3 171.98 151.19 180.39 142.83"/></g></g><g id="u"/><g id="v"/></svg>