<?xml version="1.0" encoding="UTF-8"?><svg xmlns="http://www.w3.org/2000/svg" viewBox="0 0 300.47 300.47"><defs><style>.w{fill:#fff;}</style></defs><g id="a"/><g id="b"/><g id="c"/><g id="d"><g><path class="w" d="M109.66,181.83l-45.41-27.26c-1.36-.82-2.19-2.29-2.19-3.87v-3.61c0-1.59,.84-3.07,2.21-3.88l45.41-27.01c3.01-1.79,6.83,.38,6.83,3.88h0c0,1.58-.82,3.04-2.17,3.86l-39.44,24.06c-.94,.57-.93,1.94,.01,2.5l39.38,23.43c1.37,.81,2.21,2.29,2.21,3.88v.15c0,3.51-3.83,5.68-6.84,3.87Z"/><path class="w" d="M180.88,103.19l-40.83,97.59c-.7,1.68-2.35,2.77-4.17,2.77h-.92c-3.22,0-5.41-3.28-4.17-6.25l40.64-97.59c.7-1.68,2.35-2.78,4.17-2.78h1.12c3.23,0,5.41,3.28,4.17,6.26Z"/><path class="w" d="M251.14,154.57l-45.41,27.26c-3.01,1.81-6.84-.36-6.84-3.87v-.15c0-1.59,.84-3.07,2.21-3.88l38.89-23.14c1.17-.69,1.18-2.38,.02-3.09l-38.95-23.76c-1.34-.82-2.17-2.28-2.17-3.86h0c0-3.5,3.82-5.67,6.83-3.88l45.41,27.01c1.37,.81,2.21,2.29,2.21,3.88v3.61c0,1.59-.83,3.06-2.19,3.87Z"/></g></g><g id="e"/><g id="f"/><g id="g"/><g id="h"/><g id="i"/><g id="j"/><g id="k"/><g id="l"/><g id="m"/><g id="n"/><g id="o"/><g id="p"/><g id="q"/><g id="r"/><g id="s"/><g id="t"/><g id="u"/><g id="v"/></svg>